<svg xmlns="http://www.w3.org/2000/svg" viewBox="0 0 120 120" role="img" aria-labelledby="assistantAvatarTitle assistantAvatarDesc">
  <title id="assistantAvatarTitle">Assistant avatar</title>
  <desc id="assistantAvatarDesc">Illustrated female assistant avatar.</desc>
  <defs>
    <linearGradient id="bg" x1="0" x2="1" y1="0" y2="1">
      <stop offset="0%" stop-color="#1f4c8a" />
      <stop offset="100%" stop-color="#163769" />
    </linearGradient>
    <linearGradient id="hair" x1="0" x2="1" y1="0" y2="1">
      <stop offset="0%" stop-color="#3a2b24" />
      <stop offset="100%" stop-color="#1f1511" />
    </linearGradient>
  </defs>

  <circle cx="60" cy="60" r="58" fill="url(#bg)" />
  <path
    d="M22 83c0-19 14-34 31-34h14c17 0 31 15 31 34v17H22V83z"
    fill="#f4f7fb"
    opacity="0.92"
  />
  <path d="M36 54c0-16 10-28 24-28s24 12 24 28v9c0 14-11 26-24 26S36 77 36 63v-9z" fill="#f5c7a6" />
  <path
    d="M32 57c0-23 13-36 28-36s28 13 28 36c0 3-1 6-1 9-2-7-8-15-20-15-10 0-19 6-24 16-2-3-3-7-3-10z"
    fill="url(#hair)"
  />
  <path d="M45 47c2-2 4-3 7-3 3 0 5 1 7 3" stroke="#2a1f1a" stroke-linecap="round" stroke-width="2" fill="none" />
  <path d="M61 47c2-2 4-3 7-3 3 0 5 1 7 3" stroke="#2a1f1a" stroke-linecap="round" stroke-width="2" fill="none" />
  <ellipse cx="52" cy="56" rx="2.2" ry="2.8" fill="#1c1c1c" />
  <ellipse cx="68" cy="56" rx="2.2" ry="2.8" fill="#1c1c1c" />
  <path d="M54 67c2 2 4 3 6 3s4-1 6-3" stroke="#b95753" stroke-linecap="round" stroke-width="2.4" fill="none" />
  <path d="M48 82c4 4 8 6 12 6s8-2 12-6v10H48V82z" fill="#ffffff" />
  <path d="M34 106c4-11 14-17 26-17s22 6 26 17" stroke="#0d274c" stroke-opacity="0.28" stroke-width="6" fill="none" />
</svg>
